<svg class="diagram-root" style="background: #f5f6f6" xmlns="http://www.w3.org/2000/svg" xmlns:xlink="http://www.w3.org/1999/xlink"><style>.diagram-root { font-family: "Helvetica Neue", sans-serif; font-size: 12px; } .t { overflow: visible; } .t-bg { y: 40; fill: #fff;   } .th { fill: #005aa0;   } .tht { fill: #fff; font-size: 14px;  } .tf { fill: #323c46; overflow: visible; } .tf.pk { fill: #005aa0; font-weight: bold; } .tf.fk { font-weight: bold; } .ty { fill: #adb1b5; font-weight: normal; text-anchor: end; } .r { fill: transparent; stroke: #c3c3c3; stroke-width: 1; } .l { stroke: 1; } .i { fill: #c2c7ce; stroke: #c2c7ce; } .i.ix { fill: #afb3b6; stroke: #000; } .fa { fill: transparent; overflow: visible; } .fa .bg.hover { fill: #f7f7f7; } .c { cy: 12; r: 4; stroke: #d2d2dc; fill: #d2d2dc; } .hr { fill: transparent; stroke: #323c46; stroke-opacity: 0.035; stroke-width: 13; } .dc { stroke: #fa5a3c; fill: #fa5a3c; } .x { stroke: white; stroke-width: 1; } .hl .th { fill: #1b9bff; } .hl .tht {  } .fhl .bg { fill: #e7f4ff; } .fhls .bg {  } .r.hl { stroke: #1b9bff; } .dim { opacity: 0.25; }</style><g class="drawing-wrapper" transform="translate(-26.090909090909115, 123.53909090909087) scale(1,1)"><g class="rs"><path d="M 195.26 202.72 m -1, 0 a 1,1 0 1,0 2,0 a 1,1 0 1,0 -2,0 M 195.26 202.72 m -0.5, 0 a 0.5,0.5 0 1,0 1,0 a 0.5,0.5 0 1,0 -1,0  M195.26 202.72 L195.26 202.72 207.26 202.72 M 195.26 208.72 m -1, 0 a 1,1 0 1,0 2,0 a 1,1 0 1,0 -2,0 M 195.26 208.72 m -0.5, 0 a 0.5,0.5 0 1,0 1,0 a 0.5,0.5 0 1,0 -1,0  M195.26 208.72 L195.26 208.72 202.26 202.72 195.26 196.72 M 195.26 196.72 m -1, 0 a 1,1 0 1,0 2,0 a 1,1 0 1,0 -2,0 M 195.26 196.72 m -0.5, 0 a 0.5,0.5 0 1,0 1,0 a 0.5,0.5 0 1,0 -1,0  M207.26 202.72 Q 262.31 202.72, 317.36 204.82 T 427.45 206.91 M 439.45 206.91 m -1, 0 a 1,1 0 1,0 2,0 a 1,1 0 1,0 -2,0 M 439.45 206.91 m -0.5, 0 a 0.5,0.5 0 1,0 1,0 a 0.5,0.5 0 1,0 -1,0  M439.45 206.91 L439.45 206.91 427.45 206.91 M433.45 212.91 L433.45 212.91 433.45 200.91" id="h1139284389" class="r"></path><path d="M 48.09 227.72 m -1, 0 a 1,1 0 1,0 2,0 a 1,1 0 1,0 -2,0 M 48.09 227.72 m -0.5, 0 a 0.5,0.5 0 1,0 1,0 a 0.5,0.5 0 1,0 -1,0  M48.09 227.72 L48.09 227.72 36.09 227.72 M 48.09 233.72 m -1, 0 a 1,1 0 1,0 2,0 a 1,1 0 1,0 -2,0 M 48.09 233.72 m -0.5, 0 a 0.5,0.5 0 1,0 1,0 a 0.5,0.5 0 1,0 -1,0  M48.09 233.72 L48.09 233.72 41.09 227.72 48.09 221.72 M 48.09 221.72 m -1, 0 a 1,1 0 1,0 2,0 a 1,1 0 1,0 -2,0 M 48.09 221.72 m -0.5, 0 a 0.5,0.5 0 1,0 1,0 a 0.5,0.5 0 1,0 -1,0  M36.09 227.72 C -13.909999999999997 227.72, -27.380000000000003 -15, 58.540000000000006 -15 M 70.54 -15 m -1, 0 a 1,1 0 1,0 2,0 a 1,1 0 1,0 -2,0 M 70.54 -15 m -0.5, 0 a 0.5,0.5 0 1,0 1,0 a 0.5,0.5 0 1,0 -1,0  M70.54 -15 L70.54 -15 58.540000000000006 -15 M64.54 -9 L64.54 -9 64.54 -21" id="h1607168654" class="r"></path><path d="M 466 -36.540000000000006 m -1, 0 a 1,1 0 1,0 2,0 a 1,1 0 1,0 -2,0 M 466 -36.540000000000006 m -0.5, 0 a 0.5,0.5 0 1,0 1,0 a 0.5,0.5 0 1,0 -1,0  M466 -36.540000000000006 L466 -36.540000000000006 454 -36.540000000000006 M 466 -30.540000000000006 m -1, 0 a 1,1 0 1,0 2,0 a 1,1 0 1,0 -2,0 M 466 -30.540000000000006 m -0.5, 0 a 0.5,0.5 0 1,0 1,0 a 0.5,0.5 0 1,0 -1,0  M466 -30.540000000000006 L466 -30.540000000000006 459 -36.540000000000006 466 -42.540000000000006 M 466 -42.540000000000006 m -1, 0 a 1,1 0 1,0 2,0 a 1,1 0 1,0 -2,0 M 466 -42.540000000000006 m -0.5, 0 a 0.5,0.5 0 1,0 1,0 a 0.5,0.5 0 1,0 -1,0  M454 -36.540000000000006 Q 402.93 -36.540000000000006, 351.86 -25.77 T 249.71 -15 M 237.71 -15 m -1, 0 a 1,1 0 1,0 2,0 a 1,1 0 1,0 -2,0 M 237.71 -15 m -0.5, 0 a 0.5,0.5 0 1,0 1,0 a 0.5,0.5 0 1,0 -1,0  M237.71 -15 L237.71 -15 249.71 -15 M243.71 -9 L243.71 -9 243.71 -21" id="h1397587031" class="r"></path><path d="M 613.17 -11.540000000000006 m -1, 0 a 1,1 0 1,0 2,0 a 1,1 0 1,0 -2,0 M 613.17 -11.540000000000006 m -0.5, 0 a 0.5,0.5 0 1,0 1,0 a 0.5,0.5 0 1,0 -1,0  M613.17 -11.540000000000006 L613.17 -11.540000000000006 625.17 -11.540000000000006 M 613.17 -5.540000000000006 m -1, 0 a 1,1 0 1,0 2,0 a 1,1 0 1,0 -2,0 M 613.17 -5.540000000000006 m -0.5, 0 a 0.5,0.5 0 1,0 1,0 a 0.5,0.5 0 1,0 -1,0  M613.17 -5.540000000000006 L613.17 -5.540000000000006 620.17 -11.540000000000006 613.17 -17.540000000000006 M 613.17 -17.540000000000006 m -1, 0 a 1,1 0 1,0 2,0 a 1,1 0 1,0 -2,0 M 613.17 -17.540000000000006 m -0.5, 0 a 0.5,0.5 0 1,0 1,0 a 0.5,0.5 0 1,0 -1,0  M625.17 -11.540000000000006 C 675.17 -11.540000000000006, 678.3019999999999 206.91, 619.95 206.91 M 607.95 206.91 m -1, 0 a 1,1 0 1,0 2,0 a 1,1 0 1,0 -2,0 M 607.95 206.91 m -0.5, 0 a 0.5,0.5 0 1,0 1,0 a 0.5,0.5 0 1,0 -1,0  M607.95 206.91 L607.95 206.91 619.95 206.91 M613.95 212.91 L613.95 212.91 613.95 200.91" id="h2286254435" class="r"></path><path d="M 607.95 231.91 m -1, 0 a 1,1 0 1,0 2,0 a 1,1 0 1,0 -2,0 M 607.95 231.91 m -0.5, 0 a 0.5,0.5 0 1,0 1,0 a 0.5,0.5 0 1,0 -1,0  M607.95 231.91 L607.95 231.91 619.95 231.91 M 607.95 237.91 m -1, 0 a 1,1 0 1,0 2,0 a 1,1 0 1,0 -2,0 M 607.95 237.91 m -0.5, 0 a 0.5,0.5 0 1,0 1,0 a 0.5,0.5 0 1,0 -1,0  M607.95 237.91 L607.95 237.91 614.95 231.91 607.95 225.91 M 607.95 225.91 m -1, 0 a 1,1 0 1,0 2,0 a 1,1 0 1,0 -2,0 M 607.95 225.91 m -0.5, 0 a 0.5,0.5 0 1,0 1,0 a 0.5,0.5 0 1,0 -1,0  M619.95 231.91 C 818.5740000000001 231.91, 762.84 521.9200000000001, 712.84 521.9200000000001 M 700.84 521.9200000000001 m -1, 0 a 1,1 0 1,0 2,0 a 1,1 0 1,0 -2,0 M 700.84 521.9200000000001 m -0.5, 0 a 0.5,0.5 0 1,0 1,0 a 0.5,0.5 0 1,0 -1,0  M700.84 521.9200000000001 L700.84 521.9200000000001 712.84 521.9200000000001 M706.84 527.9200000000001 L706.84 527.9200000000001 706.84 515.9200000000001" id="h1537058300" class="r"></path><path d="M 378.53 547.9100000000001 m -1, 0 a 1,1 0 1,0 2,0 a 1,1 0 1,0 -2,0 M 378.53 547.9100000000001 m -0.5, 0 a 0.5,0.5 0 1,0 1,0 a 0.5,0.5 0 1,0 -1,0  M378.53 547.9100000000001 L378.53 547.9100000000001 366.53 547.9100000000001 M 378.53 553.9100000000001 m -1, 0 a 1,1 0 1,0 2,0 a 1,1 0 1,0 -2,0 M 378.53 553.9100000000001 m -0.5, 0 a 0.5,0.5 0 1,0 1,0 a 0.5,0.5 0 1,0 -1,0  M378.53 553.9100000000001 L378.53 553.9100000000001 371.53 547.9100000000001 378.53 541.9100000000001 M 378.53 541.9100000000001 m -1, 0 a 1,1 0 1,0 2,0 a 1,1 0 1,0 -2,0 M 378.53 541.9100000000001 m -0.5, 0 a 0.5,0.5 0 1,0 1,0 a 0.5,0.5 0 1,0 -1,0  M366.53 547.9100000000001 C 316.53 547.9100000000001, 279.97799999999995 206.91, 427.45 206.91 M 439.45 206.91 m -1, 0 a 1,1 0 1,0 2,0 a 1,1 0 1,0 -2,0 M 439.45 206.91 m -0.5, 0 a 0.5,0.5 0 1,0 1,0 a 0.5,0.5 0 1,0 -1,0  M439.45 206.91 L439.45 206.91 427.45 206.91 M433.45 212.91 L433.45 212.91 433.45 200.91" id="h3177548053" class="r"></path></g><g class="hrs"></g><g class="ts"><svg width="167.17" height="100" x="70.54" y="-72" id="h475896179" class="t"><rect height="40" width="167.17" class="th"></rect><text x="13" y="25" class="tht">departments</text><rect height="60" width="167.17" class="t-bg" y="40"></rect><text x="13" y="61" class="tf pk">dept_no<tspan x="154.17" class="ty">VARCHAR</tspan></text><path d="M7,14A2,2 0 0,1 5,12A2,2 0 0,1 7,10A2,2 0 0,1 9,12A2,2 0 0,1 7,14M12.65,10C11.83,7.67 9.61,6 7, 6A6, 6 0 0, 0 1, 12A6, 6 0 0, 0 7, 18C9.61, 18 11.83, 16.33 12.65, 14H17V18H21V14H23V10H12.65Z" class="i pk" transform="translate(76.37898437499999, 48) scale(0.65)"></path><text x="13" y="86" class="tf">dept_name<tspan x="154.17" class="ty">VARCHAR</tspan></text></svg><svg width="147.17" height="100" x="48.09" y="145.72" id="h1090417462" class="t"><rect height="40" width="147.17" class="th"></rect><text x="13" y="25" class="tht">dept_emp</text><rect height="60" width="147.17" class="t-bg" y="40"></rect><text x="13" y="61" class="tf fk">emp_no<tspan x="134.17" class="ty">INT</tspan></text><text x="13" y="86" class="tf fk">dept_no<tspan x="134.17" class="ty">VARCHAR</tspan></text></svg><svg width="147.17" height="100" x="466" y="-93.54" id="h1676682957" class="t"><rect height="40" width="147.17" class="th"></rect><text x="13" y="25" class="tht">dept_manager</text><rect height="60" width="147.17" class="t-bg" y="40"></rect><text x="13" y="61" class="tf fk">dept_no<tspan x="134.17" class="ty">VARCHAR</tspan></text><text x="13" y="86" class="tf fk">emp_no<tspan x="134.17" class="ty">INT</tspan></text></svg><svg width="168.5" height="225" x="439.45" y="149.91" id="h1639608377" class="t"><rect height="40" width="168.5" class="th"></rect><text x="13" y="25" class="tht">employees</text><rect height="185" width="168.5" class="t-bg" y="40"></rect><text x="13" y="61" class="tf pk">emp_no<tspan x="155.5" class="ty">INT</tspan></text><path d="M7,14A2,2 0 0,1 5,12A2,2 0 0,1 7,10A2,2 0 0,1 9,12A2,2 0 0,1 7,14M12.65,10C11.83,7.67 9.61,6 7, 6A6, 6 0 0, 0 1, 12A6, 6 0 0, 0 7, 18C9.61, 18 11.83, 16.33 12.65, 14H17V18H21V14H23V10H12.65Z" class="i pk" transform="translate(116.169921875, 48) scale(0.65)"></path><text x="13" y="86" class="tf fk">emp_title_id<tspan x="155.5" class="ty">VARCHAR</tspan></text><text x="13" y="111" class="tf">birthdate_date<tspan x="155.5" class="ty">DATE</tspan></text><text x="13" y="136" class="tf">first_name<tspan x="155.5" class="ty">VARCHAR</tspan></text><text x="13" y="161" class="tf">last_name<tspan x="155.5" class="ty">VARCHAR</tspan></text><text x="13" y="186" class="tf">gender<tspan x="155.5" class="ty">VARCHAR</tspan></text><text x="13" y="211" class="tf">hire_date<tspan x="155.5" class="ty">DATE</tspan></text></svg><svg width="108.7" height="100" x="378.53" y="490.91" id="h2472833127" class="t"><rect height="40" width="108.7" class="th"></rect><text x="13" y="25" class="tht">salaries</text><rect height="60" width="108.7" class="t-bg" y="40"></rect><text x="13" y="61" class="tf fk">emp_no<tspan x="95.7" class="ty">INT</tspan></text><text x="13" y="86" class="tf">salary<tspan x="95.7" class="ty">INT</tspan></text></svg><svg width="138.48" height="100" x="562.36" y="464.92" id="h311790747" class="t"><rect height="40" width="138.48" class="th"></rect><text x="13" y="25" class="tht">titles</text><rect height="60" width="138.48" class="t-bg" y="40"></rect><text x="13" y="61" class="tf fk">title_id<tspan x="125.47999999999999" class="ty">VARCHAR</tspan></text><text x="13" y="86" class="tf">title<tspan x="125.47999999999999" class="ty">VARCHAR</tspan></text></svg></g></g><text class="qdbd-link" x="10" y="20">www.quickdatabasediagrams.com</text></svg>